<svg xmlns="http://www.w3.org/2000/svg" viewBox="0 0 64 64"><defs><style>.cls-1{fill:#dfe1ea;}.cls-2{fill:#adb2c7;}.cls-3{fill:#cdd2e1;}.cls-4{fill:#f6fafd;}.cls-5{fill:#fff;}.cls-6{fill:#7e8596;}</style></defs><title>94-JS Code</title><g id="_94-JS_Code" data-name="94-JS Code"><path class="cls-1" d="M63,11V61a2.006,2.006,0,0,1-2,2H3a2.006,2.006,0,0,1-2-2V11Z"/><path class="cls-2" d="M61,1a2.006,2.006,0,0,1,2,2v8H1V3A2.006,2.006,0,0,1,3,1Z"/><path class="cls-3" d="M39.6,21c-7.6,0-7.6-2-15.2-2s-7.6,2-15.2,2A26.743,26.743,0,0,1,1,19.844v8A26.743,26.743,0,0,0,9.2,29c7.6,0,7.6-2,15.2-2s7.6,2,15.2,2,7.6-2,15.2-2A26.787,26.787,0,0,1,63,28.157v-8A26.787,26.787,0,0,0,54.8,19C47.2,19,47.2,21,39.6,21Z"/><path class="cls-4" d="M1,11v8.844A26.743,26.743,0,0,0,9.2,21c7.6,0,7.6-2,15.2-2s7.6,2,15.2,2,7.6-2,15.2-2A26.787,26.787,0,0,1,63,20.157V11Z"/><rect class="cls-2" x="8" y="23" width="22" height="23" rx="1.576" ry="1.576"/><rect class="cls-5" x="7" y="29" width="20" height="14"/><rect class="cls-6" x="7" y="21" width="20" height="8"/><rect class="cls-1" x="10" y="32" width="14" height="8"/><rect class="cls-5" x="5" y="5" width="2" height="2"/><rect class="cls-5" x="14" y="5" width="45" height="2"/><rect class="cls-5" x="10" y="24" width="2" height="2"/><rect class="cls-5" x="14" y="24" width="2" height="2"/><path d="M61,0H3A3,3,0,0,0,0,3V61a3,3,0,0,0,3,3H61a3,3,0,0,0,3-3V3A3,3,0,0,0,61,0ZM3,2H61a1,1,0,0,1,1,1v7H2V3A1,1,0,0,1,3,2ZM61,62H3a1,1,0,0,1-1-1V12H62V61A1,1,0,0,1,61,62Z"/><rect x="9" y="5" width="2" height="2"/><path d="M20,42H8V30H26v1h2V21a1,1,0,0,0-1-1H7a1,1,0,0,0-1,1V43a1,1,0,0,0,1,1H20Zm6-20v6H8V22Z"/><path d="M14.293,32.293l-3,3a1,1,0,0,0,0,1.414l3,3,1.414-1.414L13.414,36l2.293-2.293Z"/><path d="M19.707,39.707l3-3a1,1,0,0,0,0-1.414l-3-3-1.414,1.414L20.586,36l-2.293,2.293Z"/><rect x="31" y="29" width="11" height="2"/><rect x="31" y="25" width="6" height="2"/><path d="M29,47.994A2.854,2.854,0,0,1,26,51H24a1.883,1.883,0,0,1-2-2V47H20v2a3.888,3.888,0,0,0,4,4h2a4.821,4.821,0,0,0,5-5V35H29Z"/><path d="M39,37a3,3,0,0,1,3,3h2a5,5,0,1,0-5,5,3,3,0,1,1-3,3H34a5,5,0,1,0,5-5,3,3,0,0,1,0-6Z"/></g></svg>