<?xml version="1.0" encoding="utf-8"?>
<!-- Generator: Adobe Illustrator 16.0.0, SVG Export Plug-In . SVG Version: 6.00 Build 0)  -->
<!DOCTYPE svg PUBLIC "-//W3C//DTD SVG 1.1//EN" "http://www.w3.org/Graphics/SVG/1.1/DTD/svg11.dtd">
<svg version="1.1" id="Layer_1" xmlns="http://www.w3.org/2000/svg" xmlns:xlink="http://www.w3.org/1999/xlink" x="0px" y="0px"
	 width="512px" height="512px" viewBox="0 0 512 512" enable-background="new 0 0 512 512" xml:space="preserve">
<g id="_x31_0_portfolio_x2C__case_x2C__business_x2C__job_x2C__work_x2C__optimization_x2C__setting">
	<g>
		<g>
			<g>
				<path fill="#5C9EFF" d="M227.582,351.935h55.961v-55.806v-1.515h23.984c85.066-5.122,141.826-22.063,172.523-34.059
					l19.908-8.619v195.933c0,17.59-14.389,31.979-31.979,31.979H44.269c-17.582,0-31.979-14.389-31.979-31.979V253.229l6.8,2.373
					c26.224,11.594,86.738,33.095,184.507,39.013h23.983v1.515V351.935z"/>
			</g>
		</g>
		<g>
			<g>
				<path fill="#5C9EFF" d="M283.543,271.989h-55.961v22.625h-23.983c-97.77-5.918-158.283-27.419-184.507-39.013
					c-10.313-4.56-15.357-7.596-15.357-7.596V136.082c0-21.985,17.988-39.973,39.973-39.973h423.711
					c21.986,0,39.973,17.988,39.973,39.973v111.924c0,0-8.947,5.438-27.34,12.55c-30.697,11.995-87.457,28.937-172.523,34.059
					h-23.984V271.989z"/>
			</g>
		</g>
		<g>
			<g>
				<g>
					<path fill="#2287FF" d="M283.543,310.604h23.984c85.066-5.122,141.826-22.063,172.523-34.055
						c8.807-3.404,15.379-6.402,19.908-8.635v-15.978l-0.125,0.054c-4.527,2.217-11.055,5.192-19.783,8.565
						c-30.697,11.995-87.457,28.937-172.523,34.059h-23.984v1.515V310.604z"/>
				</g>
			</g>
			<g>
				<g>
					<path fill="#2287FF" d="M12.291,268.46c1.937,0.929,4.2,1.983,6.8,3.131c26.224,11.594,86.738,33.095,184.507,39.013h23.983
						v-14.475v-1.515h-23.983c-97.77-5.918-158.283-27.419-184.507-39.013l-6.8-2.373V268.46z"/>
				</g>
			</g>
		</g>
		<g>
			<g>
				<g>
					<path fill="#94C1FF" d="M19.723,248.005V136.082c0-21.985,17.988-39.973,39.973-39.973H43.707
						c-21.984,0-39.973,17.988-39.973,39.973v111.924c0,0,5.044,3.037,15.357,7.596L19.723,248.005z"/>
				</g>
			</g>
			<g>
				<g>
					<path fill="#94C1FF" d="M28.28,447.869v-172.43c-3.388-1.358-6.511-2.67-9.189-3.849c-2.6-1.147-4.864-2.202-6.8-3.131v179.409
						c0,17.59,14.396,31.979,31.979,31.979h15.989C42.676,479.848,28.28,465.459,28.28,447.869z"/>
				</g>
			</g>
		</g>
		<g>
			<g>
				<g>
					<path fill="#2287FF" d="M492.527,248.005V136.082c0-21.985-17.988-39.973-39.975-39.973h15.99
						c21.984,0,39.973,17.988,39.973,39.973v111.924c0,0-5.035,3.037-15.35,7.596L492.527,248.005z"/>
				</g>
			</g>
			<g>
				<g>
					<path fill="#2287FF" d="M483.969,447.869V271.942c3.396-1.358,6.527-2.663,9.197-3.842c2.6-1.155,4.865-2.201,6.793-3.138
						v182.906c0,17.59-14.381,31.979-31.979,31.979h-15.988C469.59,479.848,483.969,465.459,483.969,447.869z"/>
				</g>
			</g>
		</g>
		<g>
			<g>
				<path fill="#94C1FF" d="M331.504,64.13H179.606V48.142c0,0,15.544-15.989,75.948-15.989c60.404,0,75.949,15.989,75.949,15.989
					V64.13z"/>
			</g>
		</g>
		<g>
			<g>
				<path fill="#5C9EFF" d="M255.555,32.152c-60.404,0-75.948,15.989-75.948,15.989v7.994c0,0,15.544-15.989,75.948-15.989
					c60.404,0,75.949,15.989,75.949,15.989v-7.994C331.504,48.142,315.959,32.152,255.555,32.152z"/>
			</g>
		</g>
		<g>
			<g>
				<g>
					<g>
						<path fill="#116FFF" d="M454.021,464.404h-15.988c-2.211,0-3.998-1.787-3.998-3.997c0-2.209,1.787-3.997,3.998-3.997h15.988
							c2.209,0,3.998,1.788,3.998,3.997C458.02,462.617,456.23,464.404,454.021,464.404z M422.043,464.404h-15.988
							c-2.211,0-3.998-1.787-3.998-3.997c0-2.209,1.787-3.997,3.998-3.997h15.988c2.209,0,3.998,1.788,3.998,3.997
							C426.041,462.617,424.252,464.404,422.043,464.404z M390.064,464.404h-15.988c-2.209,0-3.998-1.787-3.998-3.997
							c0-2.209,1.789-3.997,3.998-3.997h15.988c2.209,0,3.998,1.788,3.998,3.997C394.062,462.617,392.273,464.404,390.064,464.404z
							 M358.086,464.404h-15.988c-2.209,0-3.998-1.787-3.998-3.997c0-2.209,1.789-3.997,3.998-3.997h15.988
							c2.211,0,3.998,1.788,3.998,3.997C362.084,462.617,360.297,464.404,358.086,464.404z M326.109,464.404h-15.99
							c-2.209,0-3.998-1.787-3.998-3.997c0-2.209,1.789-3.997,3.998-3.997h15.99c2.209,0,3.996,1.788,3.996,3.997
							C330.105,462.617,328.318,464.404,326.109,464.404z M294.131,464.404h-15.99c-2.209,0-3.996-1.787-3.996-3.997
							c0-2.209,1.787-3.997,3.996-3.997h15.99c2.209,0,3.996,1.788,3.996,3.997C298.127,462.617,296.34,464.404,294.131,464.404z
							 M262.152,464.404h-15.99c-2.209,0-3.997-1.787-3.997-3.997c0-2.209,1.788-3.997,3.997-3.997h15.99
							c2.209,0,3.996,1.788,3.996,3.997C266.148,462.617,264.361,464.404,262.152,464.404z M230.173,464.404h-15.989
							c-2.209,0-3.998-1.787-3.998-3.997c0-2.209,1.788-3.997,3.998-3.997h15.989c2.21,0,3.998,1.788,3.998,3.997
							C234.171,462.617,232.383,464.404,230.173,464.404z M198.195,464.404h-15.989c-2.21,0-3.998-1.787-3.998-3.997
							c0-2.209,1.788-3.997,3.998-3.997h15.989c2.209,0,3.998,1.788,3.998,3.997C202.193,462.617,200.405,464.404,198.195,464.404z
							 M166.217,464.404h-15.989c-2.209,0-3.997-1.787-3.997-3.997c0-2.209,1.788-3.997,3.997-3.997h15.989
							c2.209,0,3.997,1.788,3.997,3.997C170.214,462.617,168.426,464.404,166.217,464.404z M134.239,464.404H118.25
							c-2.209,0-3.997-1.787-3.997-3.997c0-2.209,1.788-3.997,3.997-3.997h15.989c2.21,0,3.998,1.788,3.998,3.997
							C138.236,462.617,136.449,464.404,134.239,464.404z M102.261,464.404H86.272c-2.21,0-3.998-1.787-3.998-3.997
							c0-2.209,1.788-3.997,3.998-3.997h15.989c2.209,0,3.998,1.788,3.998,3.997C106.258,462.617,104.47,464.404,102.261,464.404z
							 M70.283,464.404H54.293c-2.209,0-3.997-1.787-3.997-3.997c0-2.209,1.788-3.997,3.997-3.997h15.989
							c2.209,0,3.997,1.788,3.997,3.997C74.28,462.617,72.492,464.404,70.283,464.404z M469.713,462.328
							c-1.521,0-2.98-0.883-3.645-2.365c-0.906-2.015,0-4.38,2.014-5.286c4.068-1.827,7.463-5.004,9.564-8.954
							c1.037-1.952,3.473-2.701,5.402-1.655c1.951,1.038,2.693,3.458,1.654,5.402c-2.928,5.52-7.674,9.954-13.357,12.499
							C470.814,462.211,470.26,462.328,469.713,462.328z M39.085,460.454c-0.757,0-1.522-0.218-2.202-0.663
							c-5.223-3.443-9.189-8.596-11.172-14.498c-0.703-2.093,0.421-4.356,2.514-5.06c2.093-0.702,4.356,0.422,5.059,2.515
							c1.421,4.216,4.263,7.9,8.002,10.367c1.843,1.219,2.35,3.701,1.132,5.543C41.654,459.814,40.381,460.454,39.085,460.454z
							 M483.947,436.064c-2.211,0-3.998-1.795-3.998-3.997v-15.989c0-2.217,1.787-3.997,3.998-3.997c2.209,0,3.996,1.78,3.996,3.997
							v15.989C487.943,434.27,486.156,436.064,483.947,436.064z M28.256,432.169c-2.209,0-3.997-1.788-3.997-3.997v-15.989
							c0-2.21,1.788-3.997,3.997-3.997c2.209,0,3.997,1.787,3.997,3.997v15.989C32.253,430.381,30.466,432.169,28.256,432.169z
							 M483.947,404.086c-2.211,0-3.998-1.795-3.998-3.997V384.1c0-2.217,1.787-3.997,3.998-3.997c2.209,0,3.996,1.78,3.996,3.997
							v15.989C487.943,402.291,486.156,404.086,483.947,404.086z M28.256,400.19c-2.209,0-3.997-1.788-3.997-3.997v-15.989
							c0-2.209,1.788-3.997,3.997-3.997c2.209,0,3.997,1.788,3.997,3.997v15.989C32.253,398.402,30.466,400.19,28.256,400.19z
							 M483.947,372.108c-2.211,0-3.998-1.796-3.998-3.997v-15.989c0-2.218,1.787-3.997,3.998-3.997
							c2.209,0,3.996,1.779,3.996,3.997v15.989C487.943,370.312,486.156,372.108,483.947,372.108z M28.256,368.213
							c-2.209,0-3.997-1.788-3.997-3.998v-15.988c0-2.21,1.788-3.998,3.997-3.998c2.209,0,3.997,1.788,3.997,3.998v15.988
							C32.253,366.425,30.466,368.213,28.256,368.213z M483.947,340.13c-2.211,0-3.998-1.796-3.998-3.997v-15.989
							c0-2.217,1.787-3.997,3.998-3.997c2.209,0,3.996,1.78,3.996,3.997v15.989C487.943,338.334,486.156,340.13,483.947,340.13z
							 M28.256,336.234c-2.209,0-3.997-1.788-3.997-3.997v-15.989c0-2.21,1.788-3.998,3.997-3.998c2.209,0,3.997,1.788,3.997,3.998
							v15.989C32.253,334.446,30.466,336.234,28.256,336.234z M483.947,308.152c-2.211,0-3.998-1.796-3.998-3.998v-15.988
							c0-2.218,1.787-3.998,3.998-3.998c2.209,0,3.996,1.78,3.996,3.998v15.988C487.943,306.356,486.156,308.152,483.947,308.152z
							 M28.256,304.256c-2.209,0-3.997-1.787-3.997-3.997V284.27c0-2.209,1.788-3.997,3.997-3.997c2.209,0,3.997,1.788,3.997,3.997
							v15.989C32.253,302.469,30.466,304.256,28.256,304.256z"/>
					</g>
				</g>
			</g>
		</g>
		<g>
			<g>
				<g>
					<g>
						<path fill="#116FFF" d="M19.715,232.562c-2.209,0-3.997-1.788-3.997-3.997v-7.995c0-2.209,1.788-3.998,3.997-3.998
							s3.997,1.788,3.997,3.998v7.995C23.712,230.775,21.925,232.562,19.715,232.562z"/>
					</g>
				</g>
				<g>
					<g>
						<path fill="#116FFF" d="M19.715,206.979c-2.209,0-3.997-1.788-3.997-3.997v-17.59c0-2.209,1.788-3.997,3.997-3.997
							s3.997,1.788,3.997,3.997v17.59C23.712,205.19,21.925,206.979,19.715,206.979z M19.715,171.803
							c-2.209,0-3.997-1.788-3.997-3.998v-17.589c0-2.209,1.788-3.998,3.997-3.998s3.997,1.788,3.997,3.998v17.589
							C23.712,170.016,21.925,171.803,19.715,171.803z"/>
					</g>
				</g>
				<g>
					<g>
						<path fill="#116FFF" d="M19.715,136.628c-2.209,0-3.997-1.788-3.997-3.997v-7.995c0-2.209,1.788-3.998,3.997-3.998
							s3.997,1.788,3.997,3.998v7.995C23.712,134.84,21.925,136.628,19.715,136.628z"/>
					</g>
				</g>
			</g>
		</g>
		<g>
			<g>
				<path fill="#116FFF" d="M491.395,232.562c-2.209,0-3.998-1.788-3.998-3.997v-15.989c0-2.209,1.789-3.997,3.998-3.997
					s3.998,1.788,3.998,3.997v15.989C495.393,230.775,493.604,232.562,491.395,232.562z M491.395,200.584
					c-2.209,0-3.998-1.788-3.998-3.998v-15.989c0-2.209,1.789-3.998,3.998-3.998s3.998,1.788,3.998,3.998v15.989
					C495.393,198.797,493.604,200.584,491.395,200.584z M491.395,168.606c-2.209,0-3.998-1.788-3.998-3.998V148.62
					c0-2.21,1.789-3.998,3.998-3.998s3.998,1.788,3.998,3.998v15.989C495.393,166.818,493.604,168.606,491.395,168.606z
					 M491.395,136.628c-2.209,0-3.998-1.788-3.998-3.997v-7.995c0-2.209,1.789-3.998,3.998-3.998s3.998,1.788,3.998,3.998v7.995
					C495.393,134.84,493.604,136.628,491.395,136.628z"/>
			</g>
		</g>
		<g>
			<g>
				<path fill="#116FFF" d="M275.541,448.416c-2.209,0-3.996-1.788-3.996-3.998V428.43c0-2.21,1.787-3.998,3.996-3.998
					s3.998,1.788,3.998,3.998v15.988C279.539,446.628,277.75,448.416,275.541,448.416z M275.541,416.438
					c-2.209,0-3.996-1.788-3.996-3.997v-15.989c0-2.209,1.787-3.997,3.996-3.997s3.998,1.788,3.998,3.997v15.989
					C279.539,414.649,277.75,416.438,275.541,416.438z M275.541,384.459c-2.209,0-3.996-1.787-3.996-3.997v-15.989
					c0-2.209,1.787-3.997,3.996-3.997s3.998,1.788,3.998,3.997v15.989C279.539,382.672,277.75,384.459,275.541,384.459z"/>
			</g>
		</g>
		<g>
			<g>
				<path fill="#116FFF" d="M235.568,448.416c-2.209,0-3.998-1.788-3.998-3.998V428.43c0-2.21,1.788-3.998,3.998-3.998
					s3.998,1.788,3.998,3.998v15.988C239.566,446.628,237.778,448.416,235.568,448.416z M235.568,416.438
					c-2.209,0-3.998-1.788-3.998-3.997v-15.989c0-2.209,1.788-3.997,3.998-3.997s3.998,1.788,3.998,3.997v15.989
					C239.566,414.649,237.778,416.438,235.568,416.438z M235.568,384.459c-2.209,0-3.998-1.787-3.998-3.997v-15.989
					c0-2.209,1.788-3.997,3.998-3.997s3.998,1.788,3.998,3.997v15.989C239.566,382.672,237.778,384.459,235.568,384.459z"/>
			</g>
		</g>
		<g>
			<g>
				<rect x="227.582" y="292.678" fill="#FFFFFF" width="7.987" height="55.962"/>
			</g>
		</g>
	</g>
	<g>
		<g>
			<path fill="#D7E9FF" d="M256,279.983c6.637,0,11.993,5.355,11.993,11.992c0,6.636-5.355,11.991-11.993,11.991
				c-6.636,0-11.991-5.355-11.991-11.991C244.008,285.339,249.364,279.983,256,279.983z"/>
		</g>
	</g>
	<g>
		<g>
			<path fill="#94C1FF" d="M256,303.967c6.637,0,11.993-5.355,11.993-11.991c0-6.637-5.355-11.992-11.993-11.992
				c-6.636,0-11.991,5.355-11.991,11.992C244.008,298.611,249.364,303.967,256,303.967z M256,256
				c19.831,0,35.975,16.066,35.975,35.976c0,19.83-16.145,35.976-35.975,35.976c-19.908,0-35.975-16.146-35.975-35.976
				C220.024,272.066,236.091,256,256,256z"/>
		</g>
	</g>
	<g>
		<g>
			<g>
				<path fill="#5C9EFF" d="M228.019,291.976c0-18.534,13.982-33.567,31.971-35.574C258.662,256.254,257.365,256,256,256
					c-19.908,0-35.975,16.066-35.975,35.976c0,19.83,16.067,35.976,35.975,35.976c1.366,0,2.663-0.25,3.991-0.406
					C242.001,325.53,228.019,310.432,228.019,291.976z"/>
			</g>
		</g>
	</g>
	<g>
		<g>
			<g>
				<path fill="#5C9EFF" d="M283.98,291.976c0,18.534-13.982,33.57-31.97,35.569c1.327,0.156,2.623,0.406,3.989,0.406
					c19.909,0,35.975-16.067,35.975-35.976C291.975,272.145,275.908,256,256,256c-1.366,0-2.662,0.254-3.989,0.406
					C269.998,258.42,283.98,273.52,283.98,291.976z"/>
			</g>
		</g>
	</g>
	<g>
		<g>
			<path fill="#D7E9FF" d="M256,327.951c19.831,0,35.975-16.146,35.975-35.976C291.975,272.066,275.83,256,256,256
				c-19.908,0-35.975,16.066-35.975,35.976C220.024,311.806,236.091,327.951,256,327.951z M178.935,271.989
				c4.396,0,10.548-7.354,11.75-9.993c1.28-2.639-0.242-7.276-3.357-10.392l-1.999-1.999c-3.123-3.119-3.123-8.236,0-11.355
				l16.95-16.945c3.115-3.119,8.229-3.119,11.352,0l1.999,1.999c3.115,3.115,12.546,2.319,15.349,1.359
				c2.717-0.961,5.035-5.356,5.035-9.755v-2.877c0-4.396,3.6-7.995,7.995-7.995h23.984c4.395,0,7.994,3.599,7.994,7.995v2.877
				c0,4.399,7.354,10.555,9.994,11.753c2.639,1.281,7.275-0.242,10.391-3.357l1.998-1.999c3.123-3.119,8.236-3.119,11.352,0
				l16.949,16.945c3.123,3.119,3.123,8.237,0,11.355l-1.998,1.999c-3.115,3.115-2.318,12.546-1.357,15.349
				c0.959,2.803,5.355,5.036,9.75,5.036h2.881c4.396,0,7.994,3.599,7.994,7.994v9.197v14.786c0,4.396-3.598,7.995-7.994,7.995
				h-2.881c-4.395,0-10.547,7.354-11.75,9.993c-1.279,2.639,0.242,7.276,3.357,10.391l1.998,1.999c3.123,3.115,3.123,8.237,0,11.359
				l-16.949,16.942c-3.115,3.122-8.229,3.122-11.352,0l-1.998-1.999c-3.115-3.115-12.547-2.319-15.35-1.358
				c-2.717,0.96-5.035,5.355-5.035,9.759v2.873c0,4.396-3.6,7.995-7.994,7.995h-23.984c-4.396,0-7.995-3.6-7.995-7.995v-2.873
				c0-4.403-7.354-10.556-9.993-11.758c-2.639-1.28-7.276,0.242-10.391,3.357l-1.999,1.999c-3.123,3.122-8.237,3.122-11.352,0
				l-16.95-16.942c-3.123-3.122-3.123-8.244,0-11.359l1.999-1.999c3.115-3.114,2.319-12.546,1.358-15.349
				c-0.96-2.717-5.355-5.035-9.751-5.035h-2.881c-4.396,0-7.994-3.6-7.994-7.995v-14.786v-9.197c0-4.396,3.599-7.994,7.994-7.994
				H178.935z"/>
		</g>
	</g>
	<g>
		<g>
			<g>
				<path fill="#FFFFFF" d="M210.273,362.646l-16.949-16.942c-3.123-3.122-3.123-8.244,0-11.359l1.999-1.999
					c3.115-3.114,2.319-12.546,1.359-15.349c-0.961-2.717-5.356-5.035-9.751-5.035h-2.881c-4.396,0-7.995-3.6-7.995-7.995v-14.786
					v-9.197c0-4.396,3.599-7.994,7.995-7.994h2.881c4.396,0,10.547-7.354,11.75-9.993c1.281-2.639-0.242-7.276-3.357-10.392
					l-1.999-1.999c-3.123-3.119-3.123-8.236,0-11.355l16.949-16.945c0.492-0.492,1.101-0.773,1.679-1.112
					c-3.076-1.792-7.05-1.511-9.673,1.112l-16.95,16.945c-3.123,3.119-3.123,8.237,0,11.355l1.999,1.999
					c3.115,3.115,4.638,7.753,3.357,10.392c-1.202,2.639-7.354,9.993-11.75,9.993h-2.881c-4.396,0-7.994,3.599-7.994,7.994v9.197
					v14.786c0,4.396,3.599,7.995,7.994,7.995h2.881c4.396,0,8.791,2.318,9.751,5.035c0.96,2.803,1.757,12.234-1.358,15.349
					l-1.999,1.999c-3.123,3.115-3.123,8.237,0,11.359l16.95,16.942c2.623,2.623,6.597,2.904,9.673,1.108
					C211.374,363.419,210.765,363.138,210.273,362.646z"/>
			</g>
		</g>
	</g>
	<g>
		<g>
			<g>
				<path fill="#94C1FF" d="M301.727,362.646l16.949-16.942c3.123-3.122,3.123-8.244,0-11.359l-1.998-1.999
					c-3.115-3.114-2.318-12.546-1.359-15.349c0.961-2.717,5.355-5.035,9.752-5.035h2.881c4.395,0,7.994-3.6,7.994-7.995v-14.786
					v-9.197c0-4.396-3.6-7.994-7.994-7.994h-2.881c-4.396,0-10.547-7.354-11.75-9.993c-1.281-2.639,0.242-7.276,3.357-10.392
					l1.998-1.999c3.123-3.119,3.123-8.236,0-11.355l-16.949-16.945c-0.492-0.492-1.102-0.773-1.678-1.112
					c3.076-1.792,7.049-1.511,9.672,1.112l16.949,16.945c3.123,3.119,3.123,8.237,0,11.355l-1.998,1.999
					c-3.115,3.115-4.637,7.753-3.357,10.392c1.203,2.639,7.355,9.993,11.75,9.993h2.881c4.396,0,7.994,3.599,7.994,7.994v9.197
					v14.786c0,4.396-3.598,7.995-7.994,7.995h-2.881c-4.395,0-8.791,2.318-9.75,5.035c-0.961,2.803-1.758,12.234,1.357,15.349
					l1.998,1.999c3.123,3.115,3.123,8.237,0,11.359l-16.949,16.942c-2.623,2.623-6.596,2.904-9.672,1.108
					C300.625,363.419,301.234,363.138,301.727,362.646z"/>
			</g>
		</g>
	</g>
	<g>
		<g>
			<g>
				<path fill="#116FFF" d="M256,331.948c-22.039,0-39.973-17.934-39.973-39.973c0-22.04,17.934-39.973,39.973-39.973
					c22.04,0,39.973,17.933,39.973,39.973C295.973,314.015,278.039,331.948,256,331.948z M256,259.997
					c-17.636,0-31.978,14.35-31.978,31.979c0,17.628,14.342,31.978,31.978,31.978c17.637,0,31.979-14.35,31.979-31.978
					C287.979,274.347,273.637,259.997,256,259.997z"/>
			</g>
		</g>
		<g>
			<g>
				<path fill="#116FFF" d="M256,307.965c-8.814,0-15.989-7.168-15.989-15.989c0-8.822,7.175-15.989,15.989-15.989
					c8.815,0,15.989,7.167,15.989,15.989C271.988,300.797,264.814,307.965,256,307.965z M256,283.98
					c-4.411,0-7.994,3.592-7.994,7.995s3.583,7.994,7.994,7.994s7.995-3.591,7.995-7.994S260.41,283.98,256,283.98z"/>
			</g>
		</g>
		<g>
			<g>
				<path fill="#116FFF" d="M267.992,383.912h-23.984c-6.613,0-11.992-5.379-11.992-11.991v-2.873
					c-0.016-1.905-5.387-7.089-7.651-8.119c-1.709-0.016-4.177,0.812-5.91,2.545l-1.999,1.999c-4.528,4.527-12.492,4.527-17.004,0
					l-16.95-16.942c-2.264-2.264-3.513-5.285-3.513-8.51c0-3.216,1.249-6.245,3.513-8.51l1.999-1.991
					c1.272-1.271,1.358-8.455,0.406-11.227c-0.289-0.647-2.756-2.334-5.973-2.334h-2.881c-6.612,0-11.992-5.379-11.992-11.992
					v-23.983c0-6.612,5.379-11.991,11.992-11.991h2.881c1.944-0.023,7.058-5.329,8.112-7.655c0.32-0.746-0.242-3.607-2.545-5.906
					l-1.999-1.999c-2.264-2.26-3.513-5.281-3.513-8.506c0-3.22,1.249-6.242,3.513-8.506l16.95-16.941
					c4.512-4.524,12.476-4.528,17.004-0.004l1.999,2.002c0.273,0.27,1.889,1.042,5.629,1.042c2.569,0,4.825-0.375,5.598-0.641
					c0.647-0.285,2.334-2.756,2.334-5.972v-2.877c0-6.613,5.379-11.992,11.992-11.992h23.984c6.611,0,11.992,5.379,11.992,11.992
					v2.877c0.016,1.905,5.387,7.085,7.65,8.116c1.842,0.117,4.184-0.809,5.91-2.545l1.998-1.999c4.529-4.532,12.492-4.524,17.004,0
					l16.949,16.945c2.266,2.26,3.514,5.282,3.514,8.502c0,3.225-1.248,6.246-3.514,8.51l-1.998,1.995
					c-1.273,1.276-1.357,8.451-0.406,11.227c0.273,0.679,2.701,2.335,5.973,2.335h2.881c6.613,0,11.992,5.379,11.992,11.991v23.983
					c0,6.613-5.379,11.992-11.992,11.992h-2.881c-1.943,0.023-7.057,5.324-8.111,7.651c-0.32,0.749,0.242,3.606,2.545,5.909
					l1.998,1.999c2.266,2.257,3.514,5.286,3.514,8.502c0,3.225-1.248,6.246-3.514,8.51l-16.949,16.942
					c-4.512,4.527-12.475,4.527-17.004,0l-1.998-1.999c-0.273-0.266-1.889-1.046-5.629-1.046c-2.568,0-4.824,0.374-5.598,0.64
					c-0.648,0.289-2.334,2.764-2.334,5.98v2.873C279.984,378.533,274.604,383.912,267.992,383.912z M223.811,352.84
					c1.452,0,2.787,0.281,3.95,0.859c2.889,1.304,12.25,8.502,12.25,15.349v2.873c0,2.202,1.795,3.997,3.998,3.997h23.984
					c2.201,0,3.996-1.795,3.996-3.997v-2.873c0-6.168,3.311-11.977,7.699-13.522c1.943-0.671,5.152-1.093,8.229-1.093
					c5.238,0,9.033,1.14,11.281,3.389l1.998,1.999c1.516,1.506,4.186,1.506,5.699,0l16.949-16.942
					c0.758-0.765,1.172-1.772,1.172-2.857c0-1.077-0.414-2.092-1.172-2.842l-1.998-2.007c-3.811-3.81-6.449-10.172-4.131-14.966
					c1.32-2.881,8.518-12.241,15.35-12.241h2.881c2.201,0,3.998-1.796,3.998-3.998v-23.983c0-2.202-1.797-3.997-3.998-3.997h-2.881
					c-5.27,0-11.805-2.717-13.529-7.737c-0.93-2.709-2.709-14.451,2.311-19.471l1.998-1.999c0.758-0.753,1.172-1.768,1.172-2.854
					c0-1.081-0.414-2.092-1.172-2.846l-16.949-16.949c-1.514-1.507-4.184-1.511-5.699,0.004l-1.998,1.995
					c-4.279,4.271-10.812,6.159-14.959,4.126c-2.889-1.308-12.25-8.506-12.25-15.349v-2.877c0-2.206-1.795-3.998-3.996-3.998
					h-23.984c-2.202,0-3.998,1.792-3.998,3.998v2.877c0,6.16-3.31,11.972-7.698,13.522c-1.944,0.667-5.153,1.085-8.229,1.085
					c-5.239,0-9.033-1.136-11.281-3.384l-1.999-1.999c-0.758-0.753-1.765-1.167-2.85-1.167l0,0c-1.085,0-2.093,0.414-2.85,1.167
					l-16.95,16.945c-0.757,0.758-1.171,1.769-1.171,2.85c0,1.085,0.414,2.101,1.171,2.85l1.999,2.003
					c3.81,3.81,6.449,10.173,4.13,14.962c-1.319,2.885-8.518,12.246-15.349,12.246h-2.881c-2.202,0-3.997,1.795-3.997,3.997v23.983
					c0,2.202,1.795,3.998,3.997,3.998h2.881c6.152,0,11.969,3.31,13.522,7.697c0.937,2.748,2.717,14.49-2.303,19.51l-1.999,1.999
					c-0.757,0.758-1.171,1.772-1.171,2.85c0,1.085,0.414,2.093,1.171,2.85l16.95,16.95c1.515,1.506,4.185,1.514,5.699,0l1.999-1.999
					C215.878,354.745,220.094,352.84,223.811,352.84z"/>
			</g>
		</g>
		<g>
			<g>
				<path fill="#116FFF" d="M200.038,295.973c-2.209,0-3.997-1.788-3.997-3.997c0-33.063,26.896-59.959,59.959-59.959
					c2.209,0,3.999,1.788,3.999,3.998c0,2.209-1.789,3.997-3.999,3.997c-28.652,0-51.964,23.312-51.964,51.965
					C204.035,294.185,202.248,295.973,200.038,295.973z"/>
			</g>
		</g>
		<g>
			<g>
				<path fill="#116FFF" d="M256,351.935c-2.209,0-3.997-1.788-3.997-3.997c0-2.21,1.788-3.998,3.997-3.998
					c28.653,0,51.965-23.312,51.965-51.964c0-2.21,1.787-3.997,3.996-3.997c2.211,0,3.998,1.787,3.998,3.997
					C315.959,325.039,289.062,351.935,256,351.935z"/>
			</g>
		</g>
		<g>
			<g>
				<path fill="#116FFF" d="M468.418,483.845H44.707c-19.838,0-35.976-16.138-35.976-35.976v-175.88c0-2.21,1.788-3.997,3.997-3.997
					s3.997,1.787,3.997,3.997v175.88c0,15.427,12.554,27.98,27.981,27.98h423.711c15.428,0,27.98-12.554,27.98-27.98v-175.88
					c0-2.21,1.789-3.997,3.998-3.997s3.996,1.787,3.996,3.997v175.88C504.393,467.707,488.256,483.845,468.418,483.845z"/>
			</g>
		</g>
		<g>
			<g>
				<path fill="#116FFF" d="M363.918,293.178c-1.967,0-3.676-1.452-3.949-3.459c-0.305-2.193,1.232-4.208,3.42-4.504
					c84.699-11.57,130.754-34.34,140.443-39.556V136.082c0-19.838-16.139-35.976-35.977-35.976H44.144
					c-19.838,0-35.976,16.137-35.976,35.976v109.578c9.688,5.215,55.743,27.985,140.443,39.556c2.187,0.296,3.724,2.311,3.42,4.504
					c-0.297,2.187-2.374,3.678-4.497,3.42C50.148,279.827,4.023,252.584,2.11,251.429c-1.202-0.722-1.936-2.022-1.936-3.423V136.082
					c0-24.246,19.729-43.97,43.97-43.97h423.711c24.242,0,43.971,19.725,43.971,43.97v111.924c0,1.401-0.734,2.701-1.938,3.423
					c-1.912,1.155-48.037,28.398-145.424,41.71C364.285,293.162,364.098,293.178,363.918,293.178z"/>
			</g>
		</g>
		<g>
			<g>
				<path fill="#116FFF" d="M387.91,124.09H124.089c-2.209,0-3.997-1.788-3.997-3.998s1.788-3.998,3.997-3.998H387.91
					c2.209,0,3.998,1.788,3.998,3.998S390.119,124.09,387.91,124.09z"/>
			</g>
		</g>
		<g>
			<g>
				<path fill="#116FFF" d="M331.947,68.128H180.051c-2.209,0-3.997-1.788-3.997-3.998V48.142c0-1.039,0.406-2.038,1.132-2.783
					c0.68-0.703,17.395-17.203,78.813-17.203c61.42,0,78.135,16.5,78.813,17.203c0.727,0.745,1.133,1.745,1.133,2.783V64.13
					C335.945,66.34,334.158,68.128,331.947,68.128z M184.049,60.133h143.902V50.039c-4.459-3.193-23.07-13.889-71.952-13.889
					c-48.795,0-67.423,10.657-71.951,13.897V60.133z"/>
			</g>
		</g>
		<g>
			<g>
				<path fill="#116FFF" d="M180.051,84.117c-2.209,0-3.997-1.788-3.997-3.998V64.13c0-2.209,1.788-3.997,3.997-3.997
					c2.21,0,3.998,1.788,3.998,3.997V80.12C184.049,82.329,182.261,84.117,180.051,84.117z"/>
			</g>
		</g>
		<g>
			<g>
				<path fill="#116FFF" d="M196.041,84.117c-2.209,0-3.997-1.788-3.997-3.998V64.13c0-2.209,1.788-3.997,3.997-3.997
					c2.209,0,3.997,1.788,3.997,3.997V80.12C200.038,82.329,198.25,84.117,196.041,84.117z"/>
			</g>
		</g>
		<g>
			<g>
				<path fill="#116FFF" d="M315.959,84.117c-2.209,0-3.998-1.788-3.998-3.998V64.13c0-2.209,1.789-3.997,3.998-3.997
					s3.998,1.788,3.998,3.997V80.12C319.957,82.329,318.168,84.117,315.959,84.117z"/>
			</g>
		</g>
		<g>
			<g>
				<path fill="#116FFF" d="M331.947,84.117c-2.209,0-3.996-1.788-3.996-3.998V64.13c0-2.209,1.787-3.997,3.996-3.997
					c2.211,0,3.998,1.788,3.998,3.997V80.12C335.945,82.329,334.158,84.117,331.947,84.117z"/>
			</g>
		</g>
	</g>
</g>
</svg>
