<?xml version="1.0" encoding="UTF-8"?>
<!DOCTYPE svg PUBLIC "-//W3C//DTD SVG 1.1//EN" "http://www.w3.org/Graphics/SVG/1.1/DTD/svg11.dtd">
<!-- Creator: CorelDRAW -->
<svg xmlns="http://www.w3.org/2000/svg" xml:space="preserve" width="2048px" height="2048px" style="shape-rendering:geometricPrecision; text-rendering:geometricPrecision; image-rendering:optimizeQuality; fill-rule:evenodd; clip-rule:evenodd"
viewBox="0 0 2048 2048"
 xmlns:xlink="http://www.w3.org/1999/xlink">
 <defs>
  <style type="text/css">
   <![CDATA[
    .fil2 {fill:none}
    .fil5 {fill:#122129}
    .fil9 {fill:#1F2A30}
    .fil8 {fill:#212121}
    .fil3 {fill:#263238}
    .fil4 {fill:#37474F}
    .fil6 {fill:#90A4AE}
    .fil7 {fill:#ECEFF1}
    .fil1 {fill:#F57C00}
    .fil0 {fill:#FF9800}
   ]]>
  </style>
   <clipPath id="id0">
    <path d="M1024 -0.0011811c565.541,0 1024,458.461 1024,1024 0,565.541 -458.461,1024 -1024,1024 -565.541,0 -1024,-458.461 -1024,-1024 0,-565.541 458.461,-1024 1024,-1024z"/>
   </clipPath>
 </defs>
 <g id="Layer_x0020_1">
  <metadata id="CorelCorpID_0Corel-Layer"/>
  <path class="fil0" d="M1024 -0.0011811c565.541,0 1024,458.461 1024,1024 0,565.541 -458.461,1024 -1024,1024 -565.541,0 -1024,-458.461 -1024,-1024 0,-565.541 458.461,-1024 1024,-1024z"/>
  <g style="clip-path:url(#id0)">
   <g id="_466415632">
    <g>
     <polygon id="_4625835281" class="fil1" points="1274.97,618.146 2410.85,1754.03 2412.22,1755.58 2413.55,1757.15 2414.86,1758.75 2416.14,1760.37 2417.39,1762.02 1281.51,626.136 1280.26,624.489 1278.98,622.867 1277.67,621.269 1276.34,619.694 "/>
     <polygon id="_462580816" class="fil1" points="1281.51,626.136 2417.39,1762.02 2418.68,1763.79 2419.93,1765.58 2421.15,1767.4 2422.34,1769.24 2423.49,1771.1 2424.61,1773 2425.69,1774.91 2426.73,1776.84 2427.74,1778.8 2428.71,1780.78 2429.64,1782.79 2430.53,1784.81 2431.39,1786.85 2432.2,1788.91 2432.97,1791 2433.71,1793.1 2434.4,1795.22 2435.05,1797.35 2435.67,1799.51 2436.23,1801.68 2436.76,1803.87 2437.24,1806.07 2437.68,1808.29 2438.07,1810.53 2438.42,1812.78 2438.73,1815.04 2438.99,1817.32 2439.2,1819.61 2439.37,1821.92 2439.49,1824.23 2439.56,1826.56 2439.58,1828.9 1303.7,693.016 1303.68,690.677 1303.61,688.349 1303.49,686.033 1303.32,683.729 1303.11,681.439 1302.85,679.16 1302.54,676.896 1302.19,674.646 1301.8,672.412 1301.36,670.191 1300.88,667.986 1300.35,665.797 1299.78,663.625 1299.17,661.471 1298.52,659.333 1297.83,657.214 1297.09,655.113 1296.32,653.031 1295.5,650.967 1294.65,648.925 1293.76,646.903 1292.83,644.901 1291.86,642.921 1290.85,640.962 1289.81,639.026 1288.73,637.113 1287.61,635.222 1286.46,633.356 1285.27,631.513 1284.05,629.696 1282.8,627.903 "/>
     <polygon id="_462580120" class="fil1" points="1303.7,693.016 2439.58,1828.9 2439.58,1879.88 1303.7,744.001 "/>
     <polygon id="_462580096" class="fil1" points="1569.39,764.697 2705.27,1900.58 2706.2,1901.68 2707.1,1902.8 2707.97,1903.94 2708.82,1905.1 2709.64,1906.28 2710.44,1907.48 2711.2,1908.71 2711.94,1909.95 2712.64,1911.21 2713.32,1912.49 2713.97,1913.79 2714.58,1915.1 2715.17,1916.44 2715.72,1917.78 2716.24,1919.15 2716.73,1920.53 2717.18,1921.93 2717.61,1923.34 2717.99,1924.76 2718.34,1926.2 2718.66,1927.65 2718.94,1929.11 2719.19,1930.59 2719.4,1932.08 2719.57,1933.57 2719.71,1935.09 2719.8,1936.61 2719.86,1938.13 2719.88,1939.67 1584,803.792 1583.98,802.253 1583.92,800.723 1583.83,799.203 1583.69,797.692 1583.52,796.194 1583.31,794.707 1583.06,793.23 1582.78,791.767 1582.46,790.315 1582.11,788.878 1581.72,787.453 1581.3,786.043 1580.85,784.648 1580.36,783.268 1579.84,781.902 1579.29,780.553 1578.7,779.221 1578.09,777.907 1577.44,776.608 1576.76,775.328 1576.06,774.067 1575.32,772.824 1574.56,771.602 1573.76,770.398 1572.94,769.216 1572.09,768.054 1571.22,766.913 1570.32,765.794 "/>
     <polygon id="_462579952" class="fil1" points="1584,803.792 2719.88,1939.67 2719.88,2054.96 1584,919.08 "/>
     <polygon id="_462579976" class="fil1" points="1584,919.08 2719.88,2054.96 2719.88,2381.63 1584,1245.75 "/>
     <polygon id="_462579712" class="fil1" points="1584,1245.75 2719.88,2381.63 2719.88,2543.42 1584,1407.54 "/>
     <polygon id="_462579736" class="fil1" points="1584,1407.54 2719.88,2543.42 2719.86,2544.96 2719.8,2546.49 2719.71,2548.01 2719.57,2549.52 2719.4,2551.02 2719.19,2552.51 2718.94,2553.99 2718.66,2555.45 2718.34,2556.9 2717.99,2558.34 2717.61,2559.76 2717.18,2561.17 2716.73,2562.57 2716.24,2563.95 2715.72,2565.31 2715.17,2566.66 2714.58,2567.99 2713.97,2569.31 2713.32,2570.61 2712.64,2571.89 2711.94,2573.15 2711.2,2574.39 2710.44,2575.62 2709.64,2576.82 2708.82,2578 2707.97,2579.16 2707.1,2580.3 2706.2,2581.42 2705.27,2582.52 2704.32,2583.59 2703.34,2584.64 2702.34,2585.67 1566.45,1449.79 1567.46,1448.76 1568.44,1447.71 1569.39,1446.64 1570.32,1445.54 1571.22,1444.42 1572.09,1443.28 1572.94,1442.12 1573.76,1440.94 1574.56,1439.73 1575.32,1438.51 1576.06,1437.27 1576.76,1436.01 1577.44,1434.73 1578.09,1433.43 1578.7,1432.11 1579.29,1430.78 1579.84,1429.43 1580.36,1428.07 1580.85,1426.69 1581.3,1425.29 1581.72,1423.88 1582.11,1422.46 1582.46,1421.02 1582.78,1419.57 1583.06,1418.1 1583.31,1416.63 1583.52,1415.14 1583.69,1413.64 1583.83,1412.13 1583.92,1410.61 1583.98,1409.08 "/>
     <polygon id="_462577792" class="fil1" points="1566.45,1449.79 2702.34,2585.67 2701.31,2586.67 2700.26,2587.65 2699.18,2588.6 2698.09,2589.53 2696.97,2590.43 2695.83,2591.31 2694.67,2592.16 2693.48,2592.98 2692.28,2593.77 2691.06,2594.54 2689.82,2595.27 2688.55,2595.98 2687.27,2596.66 2685.98,2597.3 2684.66,2597.92 2683.33,2598.5 2681.98,2599.06 2680.61,2599.58 2679.23,2600.06 2677.84,2600.52 2676.43,2600.94 2675,2601.33 2673.57,2601.68 2672.12,2602 2670.65,2602.28 2669.18,2602.52 2667.69,2602.73 2666.19,2602.91 2664.68,2603.04 2663.16,2603.14 2661.63,2603.2 2660.09,2603.22 1524.21,1467.33 1525.75,1467.31 1527.28,1467.26 1528.8,1467.16 1530.31,1467.02 1531.81,1466.85 1533.29,1466.64 1534.77,1466.4 1536.23,1466.11 1537.68,1465.8 1539.12,1465.44 1540.55,1465.06 1541.96,1464.64 1543.35,1464.18 1544.73,1463.69 1546.1,1463.17 1547.45,1462.62 1548.78,1462.04 1550.09,1461.42 1551.39,1460.77 1552.67,1460.1 1553.93,1459.39 1555.18,1458.65 1556.4,1457.89 1557.6,1457.1 1558.78,1456.28 1559.95,1455.43 1561.09,1454.55 1562.21,1453.65 1563.3,1452.72 1564.38,1451.77 1565.43,1450.79 "/>
     <polygon id="_462578032" class="fil1" points="699.249,725.464 1835.13,1861.35 1836.53,1863.04 1837.58,1864.98 1838.25,1867.12 1838.48,1869.41 1838.48,1879.88 702.603,744.001 702.603,733.528 702.37,731.234 701.702,729.094 700.646,727.156 "/>
     <polygon id="_462575920" class="fil1" points="523.791,1467.33 1659.67,2603.22 1658.13,2603.2 1656.6,2603.14 1655.08,2603.04 1653.57,2602.91 1652.07,2602.73 1650.59,2602.52 1649.11,2602.28 1647.65,2602 1646.2,2601.68 1644.76,2601.33 1643.33,2600.94 1641.92,2600.52 1640.53,2600.06 1639.15,2599.58 1637.78,2599.06 1636.43,2598.5 1635.1,2597.92 1633.79,2597.3 1632.49,2596.66 1631.21,2595.98 1629.95,2595.27 1628.7,2594.54 1627.48,2593.77 1626.28,2592.98 1625.1,2592.16 1623.93,2591.31 1622.79,2590.43 1621.67,2589.53 485.792,1453.65 486.911,1454.55 488.052,1455.43 489.214,1456.28 490.396,1457.1 491.6,1457.89 492.822,1458.65 494.065,1459.39 495.326,1460.1 496.607,1460.77 497.905,1461.42 499.219,1462.04 500.552,1462.62 501.902,1463.17 503.266,1463.69 504.646,1464.18 506.041,1464.64 507.452,1465.06 508.876,1465.44 510.315,1465.8 511.765,1466.11 513.23,1466.4 514.705,1466.64 516.193,1466.85 517.692,1467.02 519.201,1467.16 520.721,1467.26 522.252,1467.31 "/>
     <polygon id="_462578320" class="fil1" points="1524.21,1467.33 2660.09,2603.22 1659.67,2603.22 523.791,1467.33 "/>
    </g>
    <path id="_466415680" class="fil1" d="M856.648 580.667l334.703 0c30.9189,0 59.0138,12.6331 79.3642,32.9847 3.89055,3.88937 7.49882,8.06339 10.7906,12.4843 13.9299,18.7099 22.1953,41.8713 22.1953,66.88l0 50.9847 111.358 0 109.148 0c16.4669,0 31.4209,6.7193 42.2469,17.5453 10.8248,10.826 17.5453,25.7799 17.5453,42.2457l0 115.289 0 326.667 0 161.795c0,16.4658 -6.72048,31.4209 -17.5453,42.2457 -10.826,10.826 -25.7799,17.5453 -42.2469,17.5453l-1000.42 0c-16.4669,0 -31.4209,-6.7193 -42.2469,-17.5453 -10.8248,-10.8248 -17.5453,-25.7799 -17.5453,-42.2457l0 -161.795 0 -326.667 0 -115.289c0,-16.4658 6.72048,-31.4197 17.5453,-42.2457 10.826,-10.826 25.7799,-17.5453 42.2469,-17.5453l44.1426 0 0 -10.4728c0,-6.27993 5.1378,-11.4177 11.4189,-11.4177l111.832 0c6.28111,0 11.4189,5.1378 11.4189,11.4177l0 10.4728 9.82087 0 31.8744 0 0 -50.9847c0,-25.0087 8.26536,-48.1701 22.1965,-66.8788 3.29055,-4.42205 6.89882,-8.59607 10.7894,-12.4854 20.3504,-20.3516 48.4453,-32.9847 79.3642,-32.9847z"/>
   </g>
  </g>
  <path class="fil2" d="M1024 -0.0011811c565.541,0 1024,458.461 1024,1024 0,565.541 -458.461,1024 -1024,1024 -565.541,0 -1024,-458.461 -1024,-1024 0,-565.541 458.461,-1024 1024,-1024z"/>
  <path class="fil3" d="M856.648 580.667l334.703 0c30.9189,0 59.0138,12.6331 79.3642,32.9847 20.3516,20.3504 32.9859,48.4453 32.9859,79.3642l0 61.8071 -559.404 0 0 -61.8071c0,-30.9189 12.6343,-59.0138 32.9859,-79.3642 20.3504,-20.3516 48.4453,-32.9847 79.3642,-32.9847z"/>
  <path class="fil4" d="M1303.7 744.001l111.358 0 109.148 0c16.4669,0 31.4209,6.7193 42.2469,17.5453 10.8248,10.826 17.5453,25.7799 17.5453,42.2457l0 603.75c0,16.4658 -6.72048,31.4209 -17.5453,42.2457 -10.826,10.826 -25.7799,17.5453 -42.2469,17.5453l-1000.42 0c-16.4669,0 -31.4209,-6.7193 -42.2469,-17.5453 -10.8248,-10.8248 -17.5453,-25.7799 -17.5453,-42.2457l0 -603.75c0,-16.4658 6.72048,-31.4197 17.5453,-42.2457 10.826,-10.826 25.7799,-17.5453 42.2469,-17.5453l188.633 0 31.8744 0 559.404 0z"/>
  <polygon class="fil5" points="1584,919.08 1584,1245.75 463.999,1245.75 463.999,919.08 "/>
  <path class="fil3" d="M1024 790.659c83.7615,0 159.597,33.9544 214.49,88.8485 54.8941,54.893 88.8485,130.729 88.8485,214.49 0,83.7615 -33.9555,159.597 -88.8485,214.49 -54.893,54.893 -130.728,88.8473 -214.49,88.8473 -83.7615,0 -159.597,-33.9544 -214.49,-88.8473 -54.893,-54.893 -88.8485,-130.728 -88.8485,-214.49 0,-83.7603 33.9544,-159.597 88.8485,-214.49 54.893,-54.8941 130.728,-88.8485 214.49,-88.8485z"/>
  <path class="fil6" d="M1205.49 912.503c-46.4445,-46.4457 -110.614,-75.176 -181.494,-75.176 -70.8804,0 -135.05,28.7303 -181.494,75.176 -46.4457,46.4445 -75.1749,110.615 -75.1749,181.494 0,70.8792 28.7292,135.05 75.1749,181.494 46.4445,46.4457 110.614,75.1749 181.494,75.1749 70.8804,0 135.05,-28.7292 181.494,-75.1749 46.4457,-46.4445 75.1749,-110.615 75.1749,-181.494 0,-70.8792 -28.7292,-135.05 -75.1749,-181.494z"/>
  <path class="fil7" d="M1103.94 959.76c21.5551,25.8177 -81.5138,6.35434 -144.623,59.0422 -63.1087,52.689 -62.3587,157.576 -83.9138,131.759 -21.554,-25.8177 -26.8949,-136.205 36.2138,-188.893 63.1087,-52.689 170.769,-27.7264 192.323,-1.90866z"/>
  <path class="fil8" d="M579.352 722.11l111.832 0c6.28111,0 11.4189,5.1378 11.4189,11.4177l0 11.4213 -134.669 0 0 -11.4213c0,-6.27993 5.1378,-11.4177 11.4189,-11.4177z"/>
  <ellipse class="fil0" cx="1479" cy="825.667" rx="28.0181" ry="28.0181"/>
  <path class="fil9" d="M856.648 580.667l334.703 0c30.9189,0 59.0138,12.6331 79.3642,32.9847 3.89055,3.88937 7.49882,8.06339 10.7894,12.4854l-515.011 0c3.29055,-4.42205 6.89882,-8.59607 10.7894,-12.4854 20.3504,-20.3516 48.4453,-32.9847 79.3642,-32.9847z"/>
 </g>
</svg>
