<?xml version="1.0" encoding="utf-8"?>
<!-- Generator: Adobe Illustrator 24.0.3, SVG Export Plug-In . SVG Version: 6.00 Build 0)  -->
<svg version="1.1" id="Layer_8" xmlns="http://www.w3.org/2000/svg" xmlns:xlink="http://www.w3.org/1999/xlink" x="0px" y="0px"
	 viewBox="0 0 512 512" style="enable-background:new 0 0 512 512;" xml:space="preserve">
<style type="text/css">
	.st0{fill-rule:evenodd;clip-rule:evenodd;fill:#EDEDED;}
	.st1{fill-rule:evenodd;clip-rule:evenodd;fill:#D9834A;}
	.st2{fill-rule:evenodd;clip-rule:evenodd;fill:#C26E36;}
	.st3{fill:#2E324F;}
	.st4{fill:#E8C94F;}
	.st5{fill:#CF4D52;}
	.st6{fill-rule:evenodd;clip-rule:evenodd;fill:#BF97CC;}
	.st7{fill:#41B536;}
</style>
<g>
	<path class="st0" d="M256.08,419.48c89.93,0,163.4-73.47,163.4-163.39c0-90.1-73.47-163.57-163.4-163.57
		c-90.09,0-163.57,73.47-163.57,163.57C92.52,346.02,165.99,419.48,256.08,419.48L256.08,419.48z"/>
	<path class="st1" d="M255.92,359.76c57.18,0,103.84-46.66,103.84-103.84c0-57.18-46.66-103.67-103.84-103.67
		c-57.01,0-103.67,46.49-103.67,103.67C152.24,313.09,198.91,359.76,255.92,359.76L255.92,359.76z"/>
	<path class="st2" d="M262.36,152.41c48.36,8.82,85,51.24,85,101.97c0,57.35-46.49,103.84-103.67,103.84
		c-2.21,0-4.41-0.18-6.45-0.18c-48.36-8.82-85.01-51.24-85.01-102.14c0-57.18,46.49-103.67,103.67-103.67
		C258.12,152.24,260.33,152.24,262.36,152.41L262.36,152.41z"/>
	<path class="st3" d="M245.58,361.8l-2-0.23c-23.78-2.77-46.21-13.75-63.15-30.91c-16.93-17.15-27.65-39.75-30.17-63.62l-0.21-2
		l1.91-0.64c7.36-2.45,15.22-3.69,23.36-3.69c41.33,0,74.95,33.62,74.95,74.95c0,8.21-1.36,16.36-4.04,24.22L245.58,361.8z
		 M155.47,268.54c5.7,45.16,41.69,81.62,86.66,87.8c2.09-6.74,3.14-13.69,3.14-20.68c0-38.57-31.38-69.95-69.95-69.95
		C168.43,265.71,161.76,266.66,155.47,268.54z"/>
	<path class="st3" d="M330.74,254.17c-41.24,0-74.79-33.62-74.79-74.95c0-9.67,1.71-18.99,5.09-27.71l0.67-1.73l1.85,0.14
		c51.82,3.83,93.11,44.09,98.17,95.74l0.18,1.83l-1.69,0.72C350.86,252.17,340.95,254.17,330.74,254.17z M265.06,155.06
		c-2.72,7.64-4.1,15.76-4.1,24.16c0,38.57,31.31,69.95,69.79,69.95c8.91,0,17.58-1.64,25.82-4.87
		C351.02,196.59,312.96,159.47,265.06,155.06z"/>
	<path class="st3" d="M255.92,362.26c-58.54,0-106.17-47.71-106.17-106.34c0-58.54,47.63-106.17,106.17-106.17
		c58.64,0,106.34,47.63,106.34,106.17C362.26,314.55,314.55,362.26,255.92,362.26z M255.92,154.74
		c-55.79,0-101.17,45.38-101.17,101.17c0,55.88,45.39,101.34,101.17,101.34c55.88,0,101.34-45.46,101.34-101.34
		C357.26,200.13,311.8,154.74,255.92,154.74z"/>
	
		<rect x="151.45" y="252.74" transform="matrix(0.7047 -0.7095 0.7095 0.7047 -105.7198 256.4813)" class="st3" width="207.57" height="5"/>
	
		<rect x="250.7" y="155.11" transform="matrix(0.7034 -0.7108 0.7108 0.7034 -108.7926 256.704)" class="st3" width="5" height="207.2"/>
	<path class="st4" d="M151.57,206.64c-0.52,0-1.05-0.16-1.49-0.49l-7.01-5.19l-7.17,5.2c-0.88,0.64-2.07,0.63-2.95-0.01
		c-0.88-0.65-1.23-1.78-0.88-2.82l2.8-8.27l-7.16-5.2c-0.88-0.64-1.24-1.76-0.91-2.79c0.33-1.03,1.29-1.73,2.38-1.73h8.86l2.67-8.44
		c0.33-1.04,1.29-1.75,2.38-1.75l0,0c1.09,0,2.05,0.71,2.38,1.75l2.67,8.44H157c1.08,0,2.04,0.7,2.38,1.73
		c0.33,1.03-0.03,2.16-0.91,2.79l-7.19,5.21l2.67,8.28c0.33,1.03-0.04,2.16-0.92,2.8C152.59,206.48,152.08,206.64,151.57,206.64z
		 M136.87,190.35l2.42,1.75c0.89,0.64,1.25,1.79,0.9,2.83l-0.87,2.57l2.3-1.67c0.88-0.64,2.08-0.63,2.96,0.01l2.23,1.65l-0.84-2.61
		c-0.33-1.03,0.04-2.16,0.91-2.79l2.42-1.75h-2.98c-1.09,0-2.05-0.71-2.38-1.75l-0.84-2.65l-0.84,2.65
		c-0.33,1.04-1.29,1.75-2.38,1.75H136.87z"/>
	<path class="st5" d="M377.57,368.34c-0.52,0-1.05-0.16-1.49-0.49l-7.01-5.19l-7.17,5.2c-0.88,0.64-2.07,0.64-2.95-0.01
		c-0.88-0.64-1.24-1.78-0.89-2.81l2.81-8.45l-7.17-5.2c-0.88-0.64-1.25-1.78-0.9-2.81c0.35-1.03,1.32-1.74,2.41-1.71l8.68,0.14
		l2.82-8.44c0.34-1.02,1.3-1.71,2.37-1.71c0.01,0,0.01,0,0.02,0c1.08,0.01,2.04,0.71,2.36,1.75l2.66,8.4l8.66-0.14
		c1.04-0.02,2.06,0.67,2.41,1.7c0.35,1.03-0.01,2.17-0.88,2.81l-7.05,5.22l2.68,8.48c0.33,1.03-0.05,2.16-0.93,2.79
		C378.59,368.19,378.08,368.34,377.57,368.34z M363.06,352.01l2.24,1.63c0.88,0.64,1.25,1.78,0.9,2.81l-0.93,2.8l2.35-1.71
		c0.88-0.64,2.08-0.64,2.96,0.01l2.29,1.69l-0.9-2.83c-0.32-1.02,0.04-2.13,0.9-2.76l2.22-1.64l-2.73,0.04c-0.01,0-0.03,0-0.04,0
		c-1.09,0-2.05-0.71-2.38-1.75l-0.9-2.85l-0.96,2.88c-0.35,1.03-1.32,1.77-2.41,1.71L363.06,352.01z"/>
	<path class="st6" d="M174.47,371.1c4.92,0,8.99-3.9,8.99-9c0-4.92-4.07-8.82-8.99-8.82c-4.92,0-8.99,3.9-8.99,8.82
		C165.48,367.2,169.55,371.1,174.47,371.1L174.47,371.1z"/>
	<path class="st7" d="M330.74,164.56c-1.38,0-2.5-1.12-2.5-2.5V143.4c0-1.38,1.12-2.5,2.5-2.5c1.38,0,2.5,1.12,2.5,2.5v18.67
		C333.24,163.44,332.12,164.56,330.74,164.56z"/>
	<path class="st7" d="M340.07,155.23h-18.5c-1.38,0-2.5-1.12-2.5-2.5c0-1.38,1.12-2.5,2.5-2.5h18.5c1.38,0,2.5,1.12,2.5,2.5
		C342.57,154.11,341.45,155.23,340.07,155.23z"/>
</g>
</svg>
